<?xml version="1.0" encoding="UTF-8"?>
<svg xmlns="http://www.w3.org/2000/svg" xmlns:xlink="http://www.w3.org/1999/xlink" width="1250.53pt" height="233.56pt" viewBox="0 0 1250.53 233.56" version="1.1">
<defs>
<clipPath id="clip1">
  <path d="M 0 0 L 1250.53125 0 L 1250.53125 233 L 0 233 Z M 0 0 "/>
</clipPath>
<clipPath id="clip2">
  <path d="M 216 17 L 1032 17 L 1032 233.558594 L 216 233.558594 Z M 216 17 "/>
</clipPath>
</defs>
<g id="surface1">
<g clip-path="url(#clip1)" clip-rule="nonzero">
<path style=" stroke:none;fill-rule:evenodd;fill:rgb(17.298889%,16.099548%,16.499329%);fill-opacity:1;" d="M 171.453125 51.226563 C 172.355469 39.355469 174.75 22.753906 174.164063 15.796875 C 173.171875 4.300781 146.722656 0.21875 138.6875 23.589844 C 134.222656 39.167969 182.046875 86.550781 196.359375 124.023438 L 207.871094 123.375 C 211.574219 122.789063 213.644531 127.765625 209.765625 128.660156 L 197.441406 129.960938 C 196.753906 153.164063 196.207031 180.171875 160.371094 206.59375 C 91.882813 257.09375 0.398438 228.414063 0.0117188 174.476563 C -1.621094 67.304688 152.195313 88.066406 148.695313 132.558594 C 157.894531 131.511719 166.945313 129.765625 175.777344 126.992188 L 122.453125 51.042969 C 111.304688 2.957031 168.988281 -12.902344 186.363281 10.976563 C 187.5625 13.730469 184.859375 37.445313 179.867188 50.671875 C 179.5 53.980469 171.28125 53.949219 171.453125 51.226563 M 177.128906 133.855469 C 167.578125 136.582031 157.792969 138.359375 147.878906 139.605469 C 143.367188 163.78125 103.015625 184.125 60.402344 178.375 C 42.890625 175.40625 33.230469 156.390625 58.234375 149.433594 L 140.296875 134.226563 C 151.21875 101.394531 24.5625 90.082031 10.570313 150.363281 C 5.789063 176.269531 17.796875 213.304688 107.527344 210.273438 C 154.019531 207.800781 194.011719 179.730469 177.128906 133.855469 M 487.199219 177.703125 C 488.605469 177.203125 489.605469 178.636719 489.714844 184.335938 C 485.21875 212.894531 469.230469 239.289063 454.277344 230.605469 C 432.914063 215.121094 454.789063 90.59375 445.410156 78.488281 C 442.097656 67.058594 445.410156 59.171875 450.640625 74.730469 C 468.917969 100.867188 467.300781 123.402344 463.699219 167.527344 C 460.996094 206.316406 461.445313 226.171875 476.558594 203.035156 C 479.605469 194.183594 485.035156 186.546875 487.199219 177.703125 M 547.863281 110.433594 L 549.644531 112.296875 C 566.546875 96.507813 576.703125 93.914063 556.808594 116.183594 C 536.476563 138.453125 548.949219 142.71875 562.3125 134.679688 C 570.902344 129.511719 579.902344 121.949219 586.253906 116.183594 C 583.480469 121.089844 580.117188 126.5 576.480469 130.730469 C 512.972656 163.375 537.277344 186.207031 563.300781 157.792969 C 572.609375 147.585938 578.609375 135.691406 587.738281 125.316406 L 600.878906 116.691406 L 593.28125 117.367188 L 604.082031 99.609375 L 595.609375 99.269531 C 588.4375 111.730469 526.753906 163.429688 569.890625 111.28125 C 581.394531 95.097656 567.753906 90.082031 547.863281 110.433594 M 568.640625 140.710938 C 558.753906 163.898438 530.652344 176.433594 546.921875 155.253906 C 553.835938 147.980469 561.128906 143.976563 568.640625 140.710938 M 715.804688 132.308594 C 684.3125 124.691406 676.410156 106.378906 685.226563 81.410156 C 688.226563 78.207031 682.300781 72.507813 678.832031 78.71875 C 671.164063 108.378906 677.535156 130.253906 713.292969 137.878906 C 711.152344 148.890625 706.898438 159.132813 700.519531 168.609375 C 662.230469 159.082031 634.1875 157.789063 617.46875 177.015625 C 603.722656 192.820313 615.667969 212.707031 626.523438 215.089844 C 649.605469 219.933594 671.820313 214.285156 696.769531 189.929688 C 756.316406 207.023438 783.871094 202.605469 799.183594 180.328125 C 798.660156 178.46875 797.609375 173.921875 794.546875 174.753906 C 777.90625 198.253906 736.378906 171.617188 710.429688 170.722656 C 716.753906 160.734375 723.019531 147.609375 727.253906 137.109375 C 782.3125 122.710938 802.527344 72.015625 801.558594 41.304688 C 800.679688 13.34375 786.421875 -4.386719 762.601563 7.269531 C 731.261719 22.378906 731.710938 90.308594 715.804688 132.308594 M 684.144531 188.777344 C 672.820313 209.917969 628.429688 215.710938 620.589844 201.648438 C 618.539063 196.496094 619.121094 190.726563 623.890625 187.492188 C 629.289063 183.828125 639.601563 183.035156 648.890625 183.105469 C 660.851563 183.191406 678.785156 189.941406 684.144531 188.777344 M 730.714844 128.273438 C 743.089844 93.574219 753.089844 58.875 762.746094 24.171875 C 766.09375 8.167969 791.777344 6.371094 791.433594 30.316406 C 792.855469 79.363281 765.683594 116.753906 730.714844 128.273438 M 1056.660156 124.035156 C 1053.03125 127.410156 1047.320313 124.320313 1048.660156 122.527344 C 1053.929688 112.261719 1060.429688 102.285156 1068.179688 92.589844 C 1075.148438 84.539063 1085.621094 84.484375 1090.980469 93.457031 C 1094.890625 100.003906 1095.101563 109.027344 1094.601563 121.234375 C 1101.050781 111.9375 1108.511719 102.390625 1115.941406 93.664063 C 1126.808594 79.808594 1144.46875 89.214844 1140.960938 110.035156 C 1137.78125 134.375 1127.148438 158.277344 1125.808594 182.402344 C 1125.269531 184.664063 1129.601563 187.464844 1131.96875 183.695313 C 1135.429688 177.664063 1137.789063 171.632813 1139.648438 165.601563 C 1141.371094 161.796875 1148.089844 163.808594 1147.140625 167.757813 C 1140.691406 190.820313 1133.710938 206.765625 1116.449219 197.050781 C 1102.558594 189.058594 1109.800781 165.523438 1113.441406 144.925781 L 1124.488281 110.035156 C 1126.269531 106.304688 1125.578125 96.328125 1114.160156 108.957031 C 1096.039063 129.925781 1084.328125 162.394531 1075.070313 196.617188 L 1054.710938 196.617188 C 1062.859375 168.332031 1069.660156 140.042969 1076.21875 111.757813 C 1080.128906 103.933594 1079.261719 81.03125 1065.078125 109.171875 Z M 1247.320313 91.300781 L 1233.011719 91.300781 C 1211.578125 77.269531 1172.621094 116.148438 1172.339844 177.101563 C 1173.019531 191.765625 1178.820313 197.667969 1184.578125 198.179688 C 1194.828125 199.082031 1209.03125 179.710938 1222.910156 139.875 L 1223.910156 140.074219 C 1219.511719 156.792969 1217.339844 173.710938 1219.128906 190.984375 C 1220.179688 201.09375 1229.890625 202.59375 1239.539063 191.257813 C 1244.429688 185.503906 1246.820313 172.96875 1250.53125 160.191406 L 1243.640625 158.125 C 1236.921875 197.726563 1221.660156 200.410156 1233.140625 157.921875 C 1238.289063 135.714844 1242.679688 113.507813 1247.320313 91.300781 M 1228.449219 104.292969 C 1220.421875 129.320313 1211.050781 154.34375 1196.890625 179.371094 C 1187.558594 196.625 1185.949219 186.863281 1185.5 176.070313 C 1185.171875 146.101563 1194.359375 120.851563 1212.949219 100.789063 C 1218.371094 96.140625 1227.078125 93.574219 1230.398438 96.316406 C 1231.269531 97.03125 1230.21875 100.363281 1228.449219 104.292969 M 140.835938 141.273438 C 126.917969 160.707031 95.457031 172.980469 61.757813 169.097656 C 46.050781 167.429688 53.359375 157.042969 65.003906 154.628906 C 91.1875 149.179688 115.742188 143.941406 140.835938 141.273438 "/>
</g>
<g clip-path="url(#clip2)" clip-rule="nonzero">
<path style=" stroke:none;fill-rule:evenodd;fill:rgb(66.699219%,47.799683%,26.298523%);fill-opacity:1;" d="M 216.421875 149.542969 L 220.695313 152.945313 C 233.902344 152.414063 244.261719 173.191406 264.316406 150.007813 C 266.488281 147.496094 273.457031 150.90625 275.4375 151.589844 C 279.394531 152.957031 277.945313 156.441406 276.496094 158.410156 C 255.628906 175.363281 264.574219 192.589844 245.652344 206.65625 C 289.558594 210.613281 277.5 184.320313 297.886719 174.988281 C 298.414063 176.410156 297.335938 177.472656 296.832031 179.335938 C 287.957031 205.871094 296.109375 218.765625 294.984375 228.230469 L 294.824219 228.0625 L 288.914063 230.1875 L 293.097656 233.421875 L 293.003906 233.5625 L 293.226563 233.519531 L 293.234375 233.527344 L 293.238281 233.519531 C 332.316406 226.957031 299.703125 199.601563 320.691406 182.707031 C 322.539063 181.222656 322.394531 182.632813 323.175781 183.207031 C 327.113281 186.085938 326.304688 189.648438 326.585938 193.894531 C 325.441406 211.292969 341.460938 212.433594 349.675781 225.308594 L 348.609375 228.746094 L 352.746094 231.945313 C 352.78125 232.058594 352.816406 232.171875 352.855469 232.289063 L 352.925781 232.082031 L 352.929688 232.085938 L 352.925781 232.082031 C 361.671875 207.582031 356.671875 205.933594 352.757813 197.347656 C 351.972656 194.914063 349 178.570313 349.589844 174.609375 C 349.820313 173.050781 357.234375 180.90625 363.539063 187.773438 C 372.261719 197.183594 391.339844 193.167969 403.261719 202.8125 C 383.644531 160.921875 372.324219 172.644531 366.828125 155.5625 C 367.921875 155.304688 364.851563 155.746094 368.351563 154.164063 C 379.859375 148.976563 403.6875 162.828125 420.953125 145.34375 L 420.953125 140.019531 L 421.03125 136.796875 L 419.671875 137.652344 C 413.222656 135.230469 404.097656 132.855469 397.3125 133.664063 C 380.761719 134.636719 382.113281 135.914063 375.136719 129.667969 C 380.554688 132.613281 392.191406 122.054688 396.585938 117.078125 C 410.941406 101.519531 404.746094 92.023438 420.65625 93.203125 C 413.316406 88.230469 393.605469 93.203125 373.867188 102.003906 C 368.8125 102.910156 362.894531 107.6875 359.9375 107.070313 C 356.941406 106.441406 359.714844 101.0625 360.386719 98.8125 C 365.445313 81.789063 362.617188 71.226563 379.851563 53.054688 C 364.585938 52.6875 356.03125 58.535156 349.882813 67.511719 C 342.148438 84.5 341.699219 93.71875 338.347656 91.957031 C 332.410156 88.835938 332.980469 78.800781 331.371094 67.34375 C 329.230469 52.140625 320.105469 35.492188 324.679688 33.070313 C 302.890625 49.925781 316.230469 80.773438 316.773438 90.921875 C 316.914063 93.507813 311.804688 93.925781 310.902344 93.054688 C 302.539063 50.902344 276.316406 80.800781 269.414063 47.753906 C 267.738281 83.175781 291.222656 85.046875 289.28125 105.644531 C 289.066406 107.574219 275.03125 97.867188 263.011719 95.988281 C 252.402344 94.328125 242.429688 101.28125 231.828125 98.144531 C 234.558594 111.609375 242.980469 116.269531 248.273438 119.457031 C 253.214844 124.574219 268.105469 125.070313 269.667969 127.214844 C 270.882813 128.878906 269.660156 129.90625 270.039063 131.117188 C 261.617188 128.046875 247.699219 134.964844 245.628906 141.453125 C 243.136719 149.046875 234.679688 149.910156 227.089844 151.292969 L 218.996094 149.011719 Z M 829.90625 19.433594 C 828.863281 252.8125 1010.421875 260.839844 1031.050781 100.304688 C 1031.75 96.96875 1022.75 93.078125 1019.390625 100.3125 C 1003.019531 130.484375 989.21875 144.210938 962.644531 126.007813 C 955.210938 120.910156 940.4375 110.082031 933.488281 99.140625 C 929.6875 93.148438 924.785156 89.347656 915.089844 90.933594 C 898.410156 100.402344 895.691406 105.589844 882.523438 104.628906 C 859.691406 102.960938 842.246094 64.953125 837.503906 20.628906 C 837.097656 16.492188 830.230469 16.652344 829.90625 19.433594 "/>
</g>
<path style=" stroke:none;fill-rule:evenodd;fill:rgb(82.398987%,67.799377%,41.598511%);fill-opacity:1;" d="M 241.414063 203.328125 C 260.335938 189.257813 251.390625 172.03125 272.261719 155.078125 C 273.707031 153.109375 275.152344 149.625 271.203125 148.261719 C 269.21875 147.574219 262.253906 144.167969 260.078125 146.679688 C 240.023438 169.859375 229.40625 149.101563 216.199219 149.636719 C 224.574219 146.46875 238.121094 148.085938 241.390625 138.121094 C 243.460938 131.632813 257.378906 124.714844 265.796875 127.785156 C 265.421875 126.574219 266.644531 125.550781 265.429688 123.882813 C 263.871094 121.738281 249.355469 117.984375 246.460938 114.386719 C 241.695313 109.527344 232.894531 107.976563 230.167969 94.507813 C 240.769531 97.648438 248.164063 90.996094 258.769531 92.65625 C 270.792969 94.535156 284.828125 104.246094 285.042969 102.3125 C 286.984375 81.714844 261.078125 76.515625 268.808594 41.09375 C 275.710938 74.140625 298.300781 47.570313 306.664063 89.722656 C 307.566406 90.59375 312.675781 90.175781 312.539063 87.59375 C 311.992188 77.441406 302.589844 44.777344 326.796875 29.132813 C 322.226563 31.554688 324.992188 48.808594 327.132813 64.011719 C 328.746094 75.46875 328.171875 85.503906 334.109375 88.625 C 337.464844 90.386719 337.914063 81.171875 345.644531 64.183594 C 351.792969 55.203125 360.347656 49.355469 375.613281 49.722656 C 358.378906 67.894531 361.210938 78.457031 356.144531 95.480469 C 355.476563 97.734375 352.703125 103.109375 355.699219 103.738281 C 358.65625 104.355469 364.570313 99.578125 369.628906 98.671875 C 389.367188 89.871094 409.078125 84.898438 416.417969 89.875 C 400.507813 88.691406 406.703125 98.191406 392.347656 113.746094 C 387.953125 118.722656 376.320313 129.28125 370.894531 126.335938 C 377.878906 132.582031 376.523438 131.304688 393.074219 130.332031 C 402.246094 129.238281 415.683594 133.96875 421.027344 136.757813 C 403.652344 162.03125 376.617188 145.195313 364.113281 150.832031 C 360.613281 152.414063 363.683594 151.972656 362.589844 152.230469 C 368.085938 169.3125 379.40625 157.589844 399.023438 199.480469 C 387.101563 189.835938 368.023438 193.851563 359.304688 184.445313 C 352.996094 177.574219 345.582031 169.71875 345.351563 171.277344 C 344.761719 175.238281 347.734375 191.582031 348.519531 194.015625 C 352.445313 202.625 357.460938 204.257813 348.617188 228.957031 C 342.632813 209.0625 321.023438 210.675781 322.347656 190.5625 C 322.066406 186.320313 322.871094 182.753906 318.9375 179.875 C 318.15625 179.304688 318.300781 177.890625 316.453125 179.375 C 295.421875 196.304688 328.21875 223.738281 288.769531 230.230469 C 295.792969 220.023438 281.953125 207.820313 292.59375 176.003906 C 293.097656 174.140625 294.179688 173.078125 293.652344 171.65625 C 273.261719 180.988281 285.320313 207.28125 241.414063 203.328125 M 825.667969 16.101563 C 824.628906 249.480469 1006.179688 257.511719 1026.808594 96.972656 C 1027.511719 93.640625 1018.511719 89.75 1015.148438 96.980469 C 998.78125 127.152344 984.980469 140.878906 958.40625 122.675781 C 950.96875 117.578125 936.199219 106.75 929.253906 95.808594 C 925.449219 89.816406 920.546875 86.015625 910.851563 87.601563 C 894.171875 97.070313 891.453125 102.257813 878.285156 101.300781 C 855.453125 99.628906 838.011719 61.621094 833.265625 17.296875 C 832.859375 13.160156 825.992188 13.320313 825.667969 16.101563 "/>
<path style=" stroke:none;fill-rule:evenodd;fill:rgb(100%,100%,100%);fill-opacity:1;" d="M 297.8125 169.441406 L 298.03125 170.03125 C 298.382813 170.980469 298.519531 171.976563 298.441406 172.980469 C 298.285156 174.90625 297.523438 175.664063 297.105469 177.222656 L 297.066406 177.355469 L 297.023438 177.484375 C 293.644531 187.589844 292.289063 197.097656 293.558594 207.679688 C 294.148438 212.636719 295.6875 218.582031 295.488281 223.871094 C 299.378906 222.558594 303.011719 220.429688 304.261719 216.792969 C 305.773438 212.378906 304.378906 204.804688 304.09375 200.09375 C 303.492188 190.261719 305.4375 182.246094 313.527344 175.738281 C 316.558594 173.296875 319.84375 173.414063 322.136719 176.441406 C 324.136719 178.019531 325.554688 180.003906 326.28125 182.488281 C 327.058594 185.140625 326.832031 187.570313 327.011719 190.25 L 327.03125 190.558594 L 327.011719 190.871094 C 326.765625 194.597656 327.382813 197.765625 329.710938 200.746094 C 332.523438 204.335938 337.464844 207.421875 341.027344 210.355469 C 343.523438 212.414063 345.699219 214.546875 347.546875 216.890625 C 348.183594 214.378906 348.65625 211.878906 348.816406 209.5625 C 349 206.824219 348.71875 204.777344 347.542969 202.304688 C 346.519531 200.152344 345.269531 198.140625 344.269531 195.953125 L 344.160156 195.710938 L 344.074219 195.453125 C 343.589844 193.953125 343.269531 192.148438 342.96875 190.597656 C 342.492188 188.148438 342.070313 185.679688 341.691406 183.214844 C 341.167969 179.792969 340.230469 173.957031 340.730469 170.589844 C 340.878906 169.582031 341.214844 168.457031 342.601563 167.402344 C 346.421875 164.496094 350.246094 168.386719 352.796875 170.851563 C 355.476563 173.449219 358.050781 176.210938 360.589844 178.945313 C 361.308594 179.722656 362.023438 180.5 362.730469 181.273438 C 363.105469 181.671875 363.503906 182.039063 363.933594 182.378906 C 366.371094 184.300781 369.726563 185.320313 372.703125 186.03125 C 376.878906 187.027344 381.148438 187.636719 385.34375 188.585938 C 386.429688 188.832031 387.507813 189.097656 388.574219 189.390625 C 385.339844 183.789063 381.59375 178.394531 377.273438 174.175781 C 375.292969 172.238281 373.21875 170.609375 370.949219 169.03125 C 368.9375 167.628906 366.871094 166.304688 365.023438 164.679688 C 361.730469 161.777344 359.765625 158.421875 358.371094 154.347656 C 358.269531 154.179688 358.179688 154.003906 358.101563 153.816406 C 357.890625 153.335938 357.769531 152.847656 357.722656 152.367188 L 356.851563 149.648438 L 354.164063 149.648438 C 347.195313 163.535156 332.492188 173.109375 315.480469 173.109375 C 309.183594 173.109375 303.199219 171.796875 297.8125 169.441406 M 354.882813 146.875 L 358.824219 146.875 C 361.273438 139.769531 360.667969 132.941406 358.671875 126.238281 C 358.292969 133.117188 357.28125 139.996094 354.882813 146.875 M 252.433594 199.007813 C 256.925781 198.816406 261.421875 198.09375 265.082031 196.34375 C 269.292969 194.335938 271.726563 191.324219 274.050781 187.394531 C 276.105469 183.917969 277.8125 180.339844 280.179688 177.039063 C 283.238281 172.769531 286.910156 169.605469 291.707031 167.410156 L 292.859375 166.882813 C 286.875 163.289063 281.871094 158.3125 278.320313 152.414063 C 278.070313 154.257813 277.273438 156.148438 276.023438 157.847656 L 275.667969 158.328125 L 275.203125 158.707031 C 270.449219 162.566406 266.828125 166.878906 264.152344 172.398438 C 261.898438 177.046875 260.5625 182.003906 258.792969 186.835938 C 257.082031 191.507813 255.09375 195.472656 252.433594 199.007813 "/>
<path style=" stroke:none;fill-rule:evenodd;fill:rgb(100%,100%,100%);fill-opacity:1;" d="M 316.324219 122.746094 C 323.058594 122.746094 329.355469 126.691406 326.703125 132.003906 C 324.050781 137.316406 319.75 143.308594 314.054688 143.839844 C 308.355469 144.371094 304.433594 134.964844 304.433594 128.515625 C 304.433594 122.0625 309.589844 122.746094 316.324219 122.746094 "/>
<path style=" stroke:none;fill-rule:evenodd;fill:rgb(100%,100%,100%);fill-opacity:1;" d="M 915.726563 113.175781 L 925.414063 101.820313 L 949.175781 120.136719 C 951.902344 123.570313 947.964844 130.644531 944.179688 129.523438 Z M 899.078125 100.460938 L 911.1875 110.449219 L 922.386719 98.34375 C 917.34375 92.222656 913.511719 86.707031 899.078125 100.460938 "/>
</g>
</svg>
